<mxfile host="65bd71144e" scale="1" border="10">
    <diagram id="QfGMkpoJvI6r2crqou7O" name="Page-1">
        <mxGraphModel dx="794" dy="465" grid="1" gridSize="10" guides="1" tooltips="1" connect="1" arrows="1" fold="1" page="1" pageScale="1" pageWidth="850" pageHeight="1100" background="#FFFFFF" math="0" shadow="0">
            <root>
                <mxCell id="0"/>
                <mxCell id="1" parent="0"/>
                <mxCell id="2" value="新建" style="whiteSpace=wrap;html=1;fillColor=#d5e8d4;strokeColor=#82b366;fontSize=20;rounded=1;" parent="1" vertex="1">
                    <mxGeometry x="290" y="190" width="120" height="60" as="geometry"/>
                </mxCell>
                <mxCell id="3" value="运行态&lt;br&gt;&lt;font color=&quot;#ff0000&quot;&gt;RUNNING&lt;/font&gt;" style="whiteSpace=wrap;html=1;fillColor=#dae8fc;strokeColor=#6c8ebf;fontSize=20;rounded=1;" parent="1" vertex="1">
                    <mxGeometry x="275" y="320" width="150" height="70" as="geometry"/>
                </mxCell>
                <mxCell id="18" style="edgeStyle=orthogonalEdgeStyle;orthogonalLoop=1;jettySize=auto;html=1;exitX=0.5;exitY=1;exitDx=0;exitDy=0;entryX=0.5;entryY=0;entryDx=0;entryDy=0;fontSize=20;fontColor=#3399FF;" edge="1" parent="1" source="4" target="7">
                    <mxGeometry relative="1" as="geometry"/>
                </mxCell>
                <mxCell id="19" value="terminated()" style="edgeLabel;html=1;align=center;verticalAlign=middle;resizable=0;points=[];fontSize=20;fontColor=#3399FF;rounded=1;" vertex="1" connectable="0" parent="18">
                    <mxGeometry x="-0.1382" y="2" relative="1" as="geometry">
                        <mxPoint as="offset"/>
                    </mxGeometry>
                </mxCell>
                <mxCell id="4" value="整理态&lt;br&gt;&lt;font color=&quot;#ff0000&quot;&gt;TIDYING&lt;/font&gt;" style="whiteSpace=wrap;html=1;fillColor=#dae8fc;strokeColor=#6c8ebf;fontSize=20;rounded=1;" parent="1" vertex="1">
                    <mxGeometry x="275" y="630" width="150" height="70" as="geometry"/>
                </mxCell>
                <mxCell id="15" style="edgeStyle=orthogonalEdgeStyle;orthogonalLoop=1;jettySize=auto;html=1;exitX=0.5;exitY=1;exitDx=0;exitDy=0;entryX=0;entryY=0.5;entryDx=0;entryDy=0;" edge="1" parent="1" source="5" target="4">
                    <mxGeometry relative="1" as="geometry"/>
                </mxCell>
                <mxCell id="16" value="tryTerminate()" style="edgeLabel;html=1;align=center;verticalAlign=middle;resizable=0;points=[];fontSize=20;fontColor=#3399FF;rounded=1;" vertex="1" connectable="0" parent="15">
                    <mxGeometry x="-0.0793" relative="1" as="geometry">
                        <mxPoint as="offset"/>
                    </mxGeometry>
                </mxCell>
                <mxCell id="5" value="关闭态&lt;br&gt;&lt;font color=&quot;#ff0000&quot;&gt;SHUTDOWN&lt;/font&gt;" style="whiteSpace=wrap;html=1;fillColor=#dae8fc;strokeColor=#6c8ebf;fontSize=20;rounded=1;" parent="1" vertex="1">
                    <mxGeometry x="30" y="475" width="150" height="70" as="geometry"/>
                </mxCell>
                <mxCell id="14" style="edgeStyle=orthogonalEdgeStyle;orthogonalLoop=1;jettySize=auto;html=1;exitX=0.5;exitY=1;exitDx=0;exitDy=0;entryX=1;entryY=0.5;entryDx=0;entryDy=0;" edge="1" parent="1" source="6" target="4">
                    <mxGeometry relative="1" as="geometry"/>
                </mxCell>
                <mxCell id="17" value="tryTerminate()" style="edgeLabel;html=1;align=center;verticalAlign=middle;resizable=0;points=[];fontSize=20;fontColor=#3399FF;rounded=1;" vertex="1" connectable="0" parent="14">
                    <mxGeometry x="-0.0731" y="1" relative="1" as="geometry">
                        <mxPoint x="-4" y="-6" as="offset"/>
                    </mxGeometry>
                </mxCell>
                <mxCell id="6" value="停止态&lt;br&gt;&lt;font color=&quot;#ff0000&quot;&gt;STOP&lt;/font&gt;" style="whiteSpace=wrap;html=1;fillColor=#dae8fc;strokeColor=#6c8ebf;fontSize=20;rounded=1;" parent="1" vertex="1">
                    <mxGeometry x="520" y="475" width="150" height="70" as="geometry"/>
                </mxCell>
                <mxCell id="7" value="结束态&lt;br&gt;&lt;font color=&quot;#ff0000&quot;&gt;TERMINATED&lt;/font&gt;" style="whiteSpace=wrap;html=1;fillColor=#f8cecc;strokeColor=#b85450;fontSize=20;rounded=1;" parent="1" vertex="1">
                    <mxGeometry x="275" y="810" width="150" height="70" as="geometry"/>
                </mxCell>
                <mxCell id="8" value="" style="endArrow=classic;html=1;fontSize=20;exitX=0.5;exitY=1;exitDx=0;exitDy=0;entryX=0.5;entryY=0;entryDx=0;entryDy=0;" parent="1" source="2" target="3" edge="1">
                    <mxGeometry width="50" height="50" relative="1" as="geometry">
                        <mxPoint x="380" y="460" as="sourcePoint"/>
                        <mxPoint x="430" y="410" as="targetPoint"/>
                    </mxGeometry>
                </mxCell>
                <mxCell id="9" value="" style="endArrow=classic;html=1;fontSize=20;exitX=1;exitY=0.5;exitDx=0;exitDy=0;entryX=0.5;entryY=0;entryDx=0;entryDy=0;" parent="1" source="3" target="6" edge="1">
                    <mxGeometry width="50" height="50" relative="1" as="geometry">
                        <mxPoint x="380" y="460" as="sourcePoint"/>
                        <mxPoint x="430" y="410" as="targetPoint"/>
                        <Array as="points">
                            <mxPoint x="595" y="355"/>
                        </Array>
                    </mxGeometry>
                </mxCell>
                <mxCell id="12" value="shutdownNow()" style="edgeLabel;html=1;align=center;verticalAlign=middle;resizable=0;points=[];fontSize=20;fontColor=#3399FF;rounded=1;" parent="9" vertex="1" connectable="0">
                    <mxGeometry x="0.0944" y="1" relative="1" as="geometry">
                        <mxPoint as="offset"/>
                    </mxGeometry>
                </mxCell>
                <mxCell id="11" value="" style="endArrow=classic;html=1;fontSize=20;exitX=0;exitY=0.5;exitDx=0;exitDy=0;entryX=0.5;entryY=0;entryDx=0;entryDy=0;" parent="1" source="3" target="5" edge="1">
                    <mxGeometry width="50" height="50" relative="1" as="geometry">
                        <mxPoint x="160" y="400" as="sourcePoint"/>
                        <mxPoint x="324" y="495" as="targetPoint"/>
                        <Array as="points">
                            <mxPoint x="105" y="355"/>
                        </Array>
                    </mxGeometry>
                </mxCell>
                <mxCell id="13" value="shutdown()" style="edgeLabel;html=1;align=center;verticalAlign=middle;resizable=0;points=[];fontSize=20;fontColor=#3399FF;rounded=1;" parent="11" vertex="1" connectable="0">
                    <mxGeometry x="-0.2604" y="-5" relative="1" as="geometry">
                        <mxPoint x="-47" y="5" as="offset"/>
                    </mxGeometry>
                </mxCell>
                <mxCell id="20" value="onShutdown()" style="edgeStyle=orthogonalEdgeStyle;orthogonalLoop=1;jettySize=auto;html=1;exitX=1;exitY=0;exitDx=0;exitDy=0;entryX=1;entryY=1;entryDx=0;entryDy=0;fontSize=20;fontColor=#3399FF;" edge="1" parent="1" source="5" target="5">
                    <mxGeometry y="10" relative="1" as="geometry">
                        <Array as="points">
                            <mxPoint x="270" y="475"/>
                            <mxPoint x="270" y="545"/>
                        </Array>
                        <mxPoint as="offset"/>
                    </mxGeometry>
                </mxCell>
            </root>
        </mxGraphModel>
    </diagram>
</mxfile>